<svg width="396" height="48" viewBox="0 0 396 48" fill="none" xmlns="http://www.w3.org/2000/svg">
<g filter="url(#filter0_d)">
<path d="M3 37.4889C3 37.4889 91.0692 37.4889 147.5 37.4889C167.221 37.4889 178.279 7 198 7C216.745 7 227.255 37.4889 246 37.4889C303.407 37.4889 393 37.4889 393 37.4889V48H198H3V37.4889Z" fill="#FAAE9F"/>
</g>
<path d="M194.875 24.875C195.22 24.875 195.5 25.1548 195.5 25.5V33C195.5 33.3452 195.22 33.625 194.875 33.625C194.53 33.625 194.25 33.3452 194.25 33V25.5C194.25 25.1548 194.53 24.875 194.875 24.875Z" fill="#F5F5F5"/>
<path d="M198 24.875C198.345 24.875 198.625 25.1548 198.625 25.5V33C198.625 33.3452 198.345 33.625 198 33.625C197.655 33.625 197.375 33.3452 197.375 33V25.5C197.375 25.1548 197.655 24.875 198 24.875Z" fill="#F5F5F5"/>
<path d="M201.75 25.5C201.75 25.1548 201.47 24.875 201.125 24.875C200.78 24.875 200.5 25.1548 200.5 25.5V33C200.5 33.3452 200.78 33.625 201.125 33.625C201.47 33.625 201.75 33.3452 201.75 33V25.5Z" fill="#F5F5F5"/>
<path fill-rule="evenodd" clip-rule="evenodd" d="M206.125 21.75C206.125 22.4404 205.565 23 204.875 23H204.25V34.25C204.25 35.6307 203.131 36.75 201.75 36.75H194.25C192.869 36.75 191.75 35.6307 191.75 34.25V23H191.125C190.435 23 189.875 22.4404 189.875 21.75V20.5C189.875 19.8096 190.435 19.25 191.125 19.25H195.5C195.5 18.5596 196.06 18 196.75 18H199.25C199.94 18 200.5 18.5596 200.5 19.25H204.875C205.565 19.25 206.125 19.8096 206.125 20.5V21.75ZM193.148 23L193 23.0738V34.25C193 34.9404 193.56 35.5 194.25 35.5H201.75C202.44 35.5 203 34.9404 203 34.25V23.0738L202.852 23H193.148ZM191.125 21.75V20.5H204.875V21.75H191.125Z" fill="#F5F5F5"/>
<defs>
<filter id="filter0_d" x="0" y="0" width="396" height="48" filterUnits="userSpaceOnUse" color-interpolation-filters="sRGB">
<feFlood flood-opacity="0" result="BackgroundImageFix"/>
<feColorMatrix in="SourceAlpha" type="matrix" values="0 0 0 0 0 0 0 0 0 0 0 0 0 0 0 0 0 0 127 0"/>
<feOffset dy="-4"/>
<feGaussianBlur stdDeviation="1.5"/>
<feColorMatrix type="matrix" values="0 0 0 0 0 0 0 0 0 0 0 0 0 0 0 0 0 0 0.05 0"/>
<feBlend mode="normal" in2="BackgroundImageFix" result="effect1_dropShadow"/>
<feBlend mode="normal" in="SourceGraphic" in2="effect1_dropShadow" result="shape"/>
</filter>
</defs>
</svg>
