<svg width="390" height="390" viewBox="0 0 390 390" fill="none" xmlns="http://www.w3.org/2000/svg">
<rect opacity="0.3" width="390" height="390" rx="8" fill="#E0E0E0"/>
<g opacity="0.3">
<path d="M153.75 224.72C204.739 156.291 151.559 75.5251 82.8273 60.8075C52.4268 153.179 76.8691 215.335 153.75 224.72Z" fill="#F9ACC0"/>
<path d="M162.642 271.244C135.864 101.568 90.5583 72.3138 83.0886 61.3693" stroke="#86A5C4" stroke-width="2"/>
<path d="M145.084 188.68C126.554 187.537 86.4097 180.111 74.0712 159.554" stroke="#86A5C4" stroke-width="2"/>
<path d="M134.656 153.369C118.83 150.356 84.2542 135.965 72.5611 102.5" stroke="#86A5C4" stroke-width="2"/>
<path d="M140.45 171.56C146.325 160.981 156.481 132.473 150.105 103.079" stroke="#86A5C4" stroke-width="2"/>
<path d="M123.409 78.4507C125.389 88.4494 127.918 110.636 122.195 119.394" stroke="#86A5C4" stroke-width="2"/>
</g>
<g opacity="0.3">
<path d="M201.394 261.111C192.681 185.312 271.409 153.528 332.114 177.776C313.701 260.542 266.057 293.39 201.394 261.111Z" fill="#F9ACC0"/>
<path d="M173.115 290.482C271.811 180.487 320.776 182.225 331.651 178.052" stroke="#86A5C4" stroke-width="2"/>
<path d="M224.696 239.263C239.769 247.858 274.689 262.873 293.787 254.174" stroke="#86A5C4" stroke-width="2"/>
<path d="M249.047 218.842C262.853 224.7 296.59 231.806 321.09 213.375" stroke="#86A5C4" stroke-width="2"/>
<path d="M236.171 229.147C236.401 218.45 241.476 192.514 259.938 174.342" stroke="#86A5C4" stroke-width="2"/>
<path d="M292.172 169.982C286.041 176.259 273.899 191.137 274.384 200.429" stroke="#86A5C4" stroke-width="2"/>
</g>
</svg>
